<svg width="612" height="349" viewBox="0 0 612 349" fill="none" xmlns="http://www.w3.org/2000/svg">
<path d="M13.7848 18.6076C-8.30199 194.32 0.472675 258.78 23.0213 265.684C73.8566 281.259 215.591 10.6296 201.978 1.28921C195.213 -3.35212 138.119 48.4069 115.386 117.9C85.2637 209.988 103.125 332.729 150.023 346.503C239.859 372.896 421.241 -30.6113 455.982 11.6803C482.537 44.008 406.336 249.52 465.218 259.911C502.06 266.411 634.939 40.5443 607.229 15.144C600.348 8.8285 570.283 28.9987 558.738 65.9447C520.233 189.171 563.402 325.582 574.821 346.503" fill="white"/>
<path d="M13.7848 18.6076C-8.30199 194.32 0.472675 258.78 23.0213 265.684C73.8566 281.259 215.591 10.6296 201.978 1.28921C195.213 -3.35212 138.119 48.4069 115.386 117.9C85.2637 209.988 103.125 332.729 150.023 346.503C239.859 372.896 421.241 -30.6113 455.982 11.6803C482.537 44.008 406.336 249.52 465.218 259.911C502.06 266.411 634.939 40.5443 607.229 15.144C600.348 8.8285 570.283 28.9987 558.738 65.9447C520.233 189.171 563.402 325.582 574.821 346.503" stroke="url(#paint0_linear)" stroke-miterlimit="10"/>
<path d="M260.815 90.4675C204.819 153.149 243.346 280.936 288.536 287.886C323.38 293.243 376.663 229.003 378.026 166.888C378.984 123.211 354.565 66.4296 317.053 62.1692C288.951 58.9711 264.405 86.4497 260.815 90.4675Z" stroke="url(#paint1_linear)" stroke-miterlimit="10"/>
<defs>
<linearGradient id="paint0_linear" x1="52.0098" y1="221.328" x2="210.683" y2="204.444" gradientUnits="userSpaceOnUse">
<stop offset="0.385417" stop-color="#31AFF2"/>
<stop offset="1" stop-color="#5553F0"/>
</linearGradient>
<linearGradient id="paint1_linear" x1="245.116" y1="205.698" x2="283.221" y2="204.221" gradientUnits="userSpaceOnUse">
<stop offset="0.385417" stop-color="#31AFF2"/>
<stop offset="1" stop-color="#5553F0"/>
</linearGradient>
</defs>
</svg>
