<svg width="180" height="180" viewBox="0 0 180 180" fill="none" xmlns="http://www.w3.org/2000/svg">
<rect width="180" height="180" fill="white"/>
<path d="M70.9999 119H158" stroke="#757575" stroke-width="0.408" stroke-miterlimit="4.04"/>
<path fill-rule="evenodd" clip-rule="evenodd" d="M76.8078 98.6115L74.2308 111.796H74.2693L85.5193 98.5733H87.4424L84.077 115.694H81.7885L84.3847 102.49H84.3078L73.1155 115.752H71.1732L74.5385 98.6115" fill="#757575"/>
<path fill-rule="evenodd" clip-rule="evenodd" d="M92.4616 108.127L98.2308 108.108L99.2116 103.083L101.5 103.064L99.0192 115.637H96.7308L97.8846 109.809L92.1154 109.828L90.9616 115.675H88.6731L91.1539 103.121L93.4423 103.102" fill="#757575"/>
<path fill-rule="evenodd" clip-rule="evenodd" d="M107.192 108.185H107.327C107.942 106.923 110.635 102.739 113.692 102.72C115 102.72 115.596 103.713 115.615 104.898C115.615 105.509 115.154 107.439 114.923 108.146H115.077C115.692 106.885 118.423 102.72 121.462 102.701C122.769 102.681 123.365 103.675 123.365 104.879C123.365 105.223 123.231 106.064 123.096 106.675L121.385 115.541H119.096L120.827 106.694C120.865 106.408 120.942 106.178 120.942 105.796C120.942 105.414 120.769 104.917 120.269 104.936C118.846 104.936 115.096 109.618 114.538 111.013L113.615 115.58L111.327 115.599L113.038 106.732C113.096 106.446 113.173 106.216 113.173 105.834C113.173 105.452 113 104.955 112.5 104.955C111.058 104.974 107.558 109.408 106.75 111.051L105.846 115.618L103.558 115.637L106.019 103.083L108.308 103.064" fill="#757575"/>
<path fill-rule="evenodd" clip-rule="evenodd" d="M135 110.344H134.865C133.577 112.484 131.269 115.79 128.5 115.79C127 115.79 126.404 114.777 126.385 113.401C126.385 112.809 126.558 111.701 126.673 111.127L128.288 102.949H130.577L128.904 111.605C128.846 111.892 128.827 112.178 128.827 112.484C128.827 113.019 128.904 113.592 129.481 113.573C131.231 113.573 134.365 108.777 135.462 107.363L136.327 102.93H138.615L136.135 115.484H133.865" fill="#757575"/>
<path fill-rule="evenodd" clip-rule="evenodd" d="M146.538 102.873L147.865 111.892H147.942L153.231 102.853L156.442 102.834L153.961 115.408H151.673L153.711 105.051L153.596 105.07L148.288 114.567L146 114.586L144.615 105.07H144.442L142.384 115.446L140.731 115.465L143.192 102.892" fill="#757575"/>
<path fill-rule="evenodd" clip-rule="evenodd" d="M43.4231 76.3694C44.7307 76.3694 45.1346 76.0637 45.1346 72.6051C45.1346 67.9618 43.25 63.5669 37.9615 63.5669C33.4615 63.5669 31.9231 66.242 30.9807 68.2675C30.5961 69.0701 30.3654 69.8344 29.8269 69.8344C29.3269 69.8344 29.2884 69.4713 29.2884 69.1656C29.2884 68.8408 29.3461 68.4777 29.4807 67.7325L29.8269 65.4968C29.9231 64.9045 30.0577 63.7962 31.3654 63.2229C32.9038 62.4968 36.5384 62 38.4423 62C46.4615 62 49.6923 67.9618 49.6923 74.6115C49.6923 85.5223 41.0961 94.9235 31.5 94.9235C29.6923 94.9235 26.0577 94.3885 24.2884 92.8599C23.7115 92.363 23.4423 91.8853 23.4423 91.4841C23.4423 91.0828 23.5192 89.8216 23.6154 89.3439L23.9808 87.0127C24.0769 86.5541 24.2115 85.6178 24.8846 85.6178C25.5192 85.6178 25.5769 86.2293 25.6154 86.4777C25.8846 88.7516 26.5961 93.3567 31.5192 93.3567C37.7884 93.3567 43.3269 86.4204 44.1731 79.9236C44.3461 78.4904 44.3461 78.0509 43.5961 78.0509H38.5192C35.3654 78.0509 34.5577 79.4458 33.6154 81.4904C33.3077 82.1592 32.8461 83.6306 32.1346 83.6306C31.9038 83.6306 31.6923 83.4013 31.6923 83.1337C31.6923 81.1656 33.3077 78.9299 34.0192 73.9618C34.1154 73.1974 34.25 72.2994 34.8846 72.2994C35.5577 72.2994 35.4615 72.9681 35.5577 73.7707C35.7692 76.2739 36.7307 76.3694 38.3846 76.3694" fill="#0276A5"/>
<path fill-rule="evenodd" clip-rule="evenodd" d="M56.0385 80.9362C56.6539 78.6433 57.1346 76.9426 57.1346 75.5095C57.1346 74.898 56.8654 74.6305 56.5192 74.6305C55.6346 74.6305 53.75 77.4585 53.0962 78.5477C52.9615 78.7579 52.75 79.1401 52.4808 79.1401C52.3077 79.1401 52.0962 79.0063 52.0962 78.6241C52.0962 78.2611 52.2692 77.8789 52.5385 77.4394C54 74.8789 57.0962 71.3057 59.4231 71.3057C61.0769 71.3057 61.1346 72.9681 61.1346 73.5222C61.1346 75.605 60.4231 78.8343 59.8269 80.9171L59.0385 83.6114H59.1731C61.0192 79.5222 65.9615 71.3057 70.6346 71.3057C72.4808 71.3057 73.4423 72.6624 73.4423 74.6114C73.4423 76.312 72.7308 78.1847 72.1731 79.8662L69.3654 88.4458C69.1923 88.9617 68.75 90.4904 68.75 91.1018C68.75 91.5795 68.9231 91.8471 69.2692 91.8471C70.1923 91.8471 72.5962 88.4076 73.0769 87.6624C73.2115 87.4522 73.3846 87.1464 73.7308 87.1464C73.9038 87.1464 74.1346 87.2802 74.1346 87.6241C74.1346 87.7961 74.0385 88.1592 73.6538 88.8471C72.1731 91.3694 68.8462 94.9808 66.6154 94.9808C65.5577 94.9808 64.6538 94.2356 64.6538 92.5541C64.6538 91.5031 64.9615 90.2038 65.8846 87.2038L68.7308 78.1464C69.0385 77.0955 69.3077 76.2356 69.3077 75.5859C69.3077 74.4012 68.6346 74.3248 68.3846 74.3248C66.7115 74.3248 65.0577 76.1019 63.6154 78.0127C59.5 83.4585 58.1923 88.1974 57.1346 91.5413L56.6539 93.1082C56.3462 94.0254 56.0385 94.1018 55.5962 94.1018H53.0962C52.8846 94.1018 52.5577 94.1401 52.75 93.4139" fill="#0276A5"/>
<path fill-rule="evenodd" clip-rule="evenodd" d="M93.9999 85.121C93.6345 86.4395 92.7692 89.7834 92.7692 90.8726C92.7692 91.3121 92.8076 91.7516 93.2499 91.7516C93.8268 91.7516 94.923 90.8726 96.2307 88.8471L97.0192 87.6242C97.1538 87.3949 97.3845 86.9172 97.673 86.9172C97.8845 86.9172 98.1153 87.0509 98.1153 87.3567C98.1153 87.6242 97.9615 87.8726 97.5384 88.656C96.0961 91.2165 93.0768 95.0191 90.0961 95.0191C89.6538 95.0191 88.6538 94.9618 88.6538 93.0509C88.6538 91.5796 89.1345 89.2675 90.4038 84.9108L91.0576 82.656H90.9615C87.0961 90.6242 81.9038 95.0191 78.923 95.0191C77.6922 95.0191 76.6345 94.2739 76.6345 92.0191C76.6345 90.3949 77.1153 88.7134 77.9999 86.0573L80.4999 78.3949C81.1538 76.3885 81.3845 75.6433 81.3845 74.9936C81.3845 74.4204 81.1153 74.3821 80.9807 74.3821C79.8076 74.3821 77.8845 77.3821 77.3076 78.3949C77.173 78.6051 77.0384 78.8726 76.7499 78.8726C76.5576 78.8726 76.3076 78.7388 76.3076 78.2993C76.3076 78.0318 76.4038 77.6114 77.173 76.4267C79.2692 73.2165 81.7307 71.3439 83.4807 71.3439C84.9807 71.3439 85.3653 72.5669 85.3653 73.9235C85.3653 74.6497 85.0961 75.7006 84.3653 78.1274L81.3461 88.1019C81.1153 88.8662 80.7692 89.879 80.7692 90.7579C80.7692 91.1974 80.8653 91.8471 81.6538 91.8471C82.2307 91.8471 83.1345 91.4649 85.1538 89.4013C88.7499 85.7898 92.1153 79.0446 93.0768 74.7452L93.423 73.1783C93.5192 72.7006 93.7692 72.2229 94.5192 72.2229H96.923C97.6153 72.2229 97.3268 72.8726 97.2692 73.0828" fill="#0276A5"/>
<path fill-rule="evenodd" clip-rule="evenodd" d="M106.25 82.7707C108.173 81.4714 110.577 79.7325 110.577 76.5032C110.577 74.4204 109.346 73.5414 108.212 73.5414C106.212 73.5414 103.962 75.758 103.135 76.9045C102.923 77.1911 102.654 77.5924 102.365 77.5924C102.192 77.5924 101.923 77.4586 101.923 77.0192C101.923 76.6179 102.231 76.2739 102.538 75.8918C104.038 74.0574 106.231 71.3249 110.115 71.3249C113.442 71.3249 114.673 73.4077 114.673 75.4905C114.673 78.395 112.577 80.2867 109.942 82.1593C107.231 84.0701 103.808 86.5542 103.808 89.9937C103.808 91.8663 104.808 92.6879 106.269 92.6879C108.558 92.6879 110.385 90.9109 112.308 88.8281C112.692 88.4268 112.865 88.2548 113 88.2548C113.173 88.2548 113.385 88.4268 113.385 88.7325C113.385 89.0765 113.173 89.344 113.038 89.5542C109.404 94.4841 106.731 94.9809 104.596 94.9809C100.654 94.9809 99.7308 92.4204 99.7308 90.6816C99.7308 87.6434 101.962 85.7325 103.673 84.5478" fill="#0276A5"/>
<path fill-rule="evenodd" clip-rule="evenodd" d="M130.327 75.1083C130.327 74.2866 130.154 72.6242 128.5 72.6242C126.038 72.6242 122.462 76.1401 121.096 83.8025C125.385 83.4586 130.327 81.07 130.327 75.1083ZM130.827 87.8917C130.962 87.7197 131.077 87.414 131.346 87.414C131.519 87.414 131.75 87.5477 131.75 87.8535C131.75 88.2548 131.212 89.1146 130.923 89.5923C128.154 93.949 125.019 95 122.865 95C119.058 95 116.769 91.7325 116.769 86.9554C116.769 79.0828 123.038 71.3439 129.154 71.3439C132.173 71.3439 134.154 73.4267 134.154 76.465C134.154 80.3439 130.827 84.2993 120.981 85.0828C120.885 85.656 120.846 86.2484 120.846 86.8216C120.846 91.4267 123.288 92.3057 124.692 92.3057C126.788 92.3057 129.077 90.3949 130.423 88.4841L130.827 87.8917Z" fill="#0276A5"/>
<path fill-rule="evenodd" clip-rule="evenodd" d="M139.538 80.4968C139.846 79.3312 140.596 76.5414 140.596 75.4522C140.596 74.5923 140.365 74.4586 140.154 74.4586C139.154 74.4586 137.308 77.3248 136.788 78.2993C136.654 78.5095 136.442 78.949 136.058 78.949C135.788 78.949 135.654 78.6815 135.654 78.4331C135.654 78.0892 135.865 77.7452 136.096 77.3439C137.192 75.5095 140.211 71.3439 142.692 71.3439C144.346 71.3439 144.577 72.949 144.577 74.0764C144.577 75.9872 144.019 77.9936 143.615 79.6369L143.192 81.414C143.135 81.6242 143.058 81.8535 143.404 81.8535H150.135C150.442 81.8535 150.538 81.586 150.577 81.4522L152.865 72.9299C152.961 72.586 153.077 72.2038 153.558 72.2038H156.288C156.904 72.2038 156.808 72.7197 156.731 73.0255L152.615 88.3312C152.096 90.242 152.038 90.7579 152.038 90.949C152.038 91.4841 152.25 91.6942 152.519 91.6942C153 91.6942 153.827 91.1592 156.192 87.4331C156.346 87.2229 156.519 86.8599 156.865 86.8599C157.135 86.8599 157.269 87.0318 157.269 87.3376C157.269 87.6433 157.096 87.9872 156.75 88.6369C155.038 91.7707 152.288 95 149.827 95C148.519 95 147.942 93.8153 147.942 92.5159C147.942 91.4841 148.25 90.3758 148.635 88.8662L149.981 83.8216C150.115 83.3821 149.846 83.2866 149.673 83.2866H143.058C142.711 83.2866 142.615 83.4204 142.538 83.7261L140.038 93.0318C139.788 94.0446 139.288 94.121 139.038 94.121H136.538C135.846 94.121 136.154 93.3376 136.192 93.1274" fill="#0276A5"/>
<path d="M91.0962 99.1655H158" stroke="#757575" stroke-width="0.408" stroke-miterlimit="4.04"/>
<path d="M23 99.1655H70.6346" stroke="#757575" stroke-width="0.408" stroke-miterlimit="4.04"/>
</svg>
