<svg width="22" height="22" viewBox="0 0 22 22" fill="none" xmlns="http://www.w3.org/2000/svg">
<path d="M11 21H19C20.1 21 21 20.1 21 19V11C21 5.5 16.5 1 11 1C5.5 1 1 5.5 1 11C1 16.6 5.4 21 11 21Z" stroke="#31AFF2" stroke-miterlimit="10" stroke-linecap="round" stroke-linejoin="round"/>
<path d="M16 12C15.4477 12 15 11.5523 15 11C15 10.4477 15.4477 10 16 10C16.5523 10 17 10.4477 17 11C17 11.5523 16.5523 12 16 12Z" fill="#31AFF2"/>
<path d="M6 12C5.44771 12 5 11.5523 5 11C5 10.4477 5.44771 10 6 10C6.55228 10 7 10.4477 7 11C7 11.5523 6.55228 12 6 12Z" fill="#31AFF2"/>
<path d="M11 12C10.4477 12 10 11.5523 10 11C10 10.4477 10.4477 10 11 10C11.5523 10 12 10.4477 12 11C12 11.5523 11.5523 12 11 12Z" fill="#31AFF2"/>
</svg>
