<svg width="14" height="13" viewBox="0 0 14 13" fill="none" xmlns="http://www.w3.org/2000/svg">
<path d="M6.945 12.28C10.575 12.28 13.14 9.76 13.14 6.19C13.14 2.635 10.575 0.129999 6.945 0.129999C3.345 0.129999 0.78 2.695 0.78 6.19C0.78 9.76 3.345 12.28 6.945 12.28ZM6.96 11.44C3.885 11.44 1.71 9.265 1.71 6.19C1.71 3.205 3.885 0.985 6.96 0.985C10.035 0.985 12.21 3.205 12.21 6.19C12.21 9.265 10.035 11.44 6.96 11.44ZM7.065 10.255C8.835 10.255 10.35 9.07 10.68 7.42L9.915 7.225C9.615 8.47 8.415 9.385 7.08 9.385C5.31 9.385 4.05 8.05 4.05 6.205C4.05 4.36 5.31 3.055 7.035 3.055C8.325 3.055 9.48 3.88 9.81 5.05L10.665 4.87C10.32 3.31 8.805 2.155 7.08 2.155C4.71 2.155 3.045 3.835 3.045 6.205C3.045 8.575 4.71 10.255 7.065 10.255Z" fill="#31AFF2"/>
</svg>
