<svg width="18" height="16" viewBox="0 0 18 16" fill="none" xmlns="http://www.w3.org/2000/svg">
<path d="M16.3557 1.73731C14.1672 -0.451134 10.6061 -0.451134 8.41749 1.73731L1.14544 9.00947C-0.382138 10.5371 -0.382138 13.0228 1.14544 14.5504C2.67291 16.0778 5.1585 16.0778 6.68625 14.5504L13.9583 7.27795C14.8249 6.41124 14.8249 5.00119 13.9584 4.1348C13.5386 3.71496 12.9805 3.4837 12.3868 3.4837C11.7932 3.4837 11.235 3.71489 10.8151 4.13473L4.74116 10.2087C4.53518 10.4146 4.53518 10.7486 4.74116 10.9545C4.9471 11.1605 5.28105 11.1605 5.487 10.9545L11.5609 4.8806C11.7816 4.66 12.0749 4.53853 12.3868 4.53853C12.6987 4.53853 12.9919 4.65996 13.2124 4.8806C13.6677 5.33581 13.6677 6.07673 13.2124 6.53211L5.94048 13.8045C4.82406 14.9207 3.00763 14.9207 1.89135 13.8045C0.775032 12.6882 0.775067 10.8717 1.89135 9.75534L9.1634 2.48319C10.9407 0.706002 13.8327 0.705967 15.6099 2.48315C16.4709 3.34413 16.9451 4.48882 16.9451 5.70639C16.9451 6.92399 16.471 8.06872 15.6099 8.92966L9.53616 15.0036C9.33018 15.2096 9.33018 15.5435 9.53616 15.7495C9.63914 15.8525 9.7741 15.9039 9.90907 15.9039C10.044 15.9039 10.179 15.8524 10.282 15.7495L16.3557 9.67543C17.4159 8.61529 17.9998 7.20567 17.9998 5.70632C17.9998 4.20704 17.416 2.79745 16.3557 1.73731Z" fill="#31AFF2"/>
</svg>
