<svg width="987" height="1618" viewBox="0 0 987 1618" fill="none" xmlns="http://www.w3.org/2000/svg">
<path d="M986 288.398C986 288.398 976.716 149.971 734.943 149.971C612.468 149.971 522.327 214.75 390.478 225.959C269.981 236.203 178.631 152.618 230.27 80.7704C266.229 30.7387 353.271 -22.7784 383.054 12.2391C400.595 32.8628 368.777 101.508 254.243 167.848C153.917 225.959 53.0059 287.983 153.624 365.798C254.243 443.614 833.023 490.447 680 770.5C526.977 1050.55 13.9501 1023.24 1.5 1295C-7.8822 1499.79 375.5 1617 375.5 1617C375.5 1617 433.145 1564.16 415.5 1532C394.453 1493.63 306.5 1558 306.5 1558" stroke="url(#paint0_linear)"/>
<defs>
<linearGradient id="paint0_linear" x1="366.102" y1="0.999881" x2="93.5378" y2="660.036" gradientUnits="userSpaceOnUse">
<stop offset="0.294736" stop-color="#31AFF2"/>
<stop offset="1" stop-color="#5553F0"/>
</linearGradient>
</defs>
</svg>
