<svg width="1192" height="1718" viewBox="0 0 1192 1718" fill="none" xmlns="http://www.w3.org/2000/svg">
<path d="M1496.5 492.209C1496.5 492.209 1480.62 255.615 1067 255.615C857.475 255.615 703.265 366.334 477.701 385.492C271.559 403.001 115.281 260.141 203.623 137.341C265.141 51.8283 414.048 -39.6411 465 20.2094C495.009 55.4587 440.577 172.784 244.635 286.171C73.0008 385.492 -99.6348 491.5 72.5001 624.5C244.635 757.5 1208.79 607.344 947 1086C664.789 1602 239.5 1477 145.5 1517C51.5 1557 139.416 1654.34 215.5 1717C215.5 1717 266.408 1628.17 227.5 1580.5C173.042 1513.78 7.5 1618.5 7.5 1618.5" stroke="url(#paint0_linear)"/>
<defs>
<linearGradient id="paint0_linear" x1="436" y1="0.999876" x2="-29.5466" y2="1127.71" gradientUnits="userSpaceOnUse">
<stop offset="0.294736" stop-color="#31AFF2"/>
<stop offset="1" stop-color="#5553F0"/>
</linearGradient>
</defs>
</svg>
