<svg width="35" height="65" viewBox="0 0 35 65" fill="none" xmlns="http://www.w3.org/2000/svg">
<rect x="10.8435" y="17.6616" width="11.2828" height="8.69697" rx="1.5" fill="#E0F3FD" stroke="#282828"/>
<path d="M1.89404 39.5C1.89404 31.2157 8.60977 24.5 16.894 24.5C25.1783 24.5 31.894 31.2157 31.894 39.5V61.5H1.89404V39.5Z" fill="#E0F3FD" stroke="#282828"/>
<rect x="9.55045" y="20.8939" width="13.8687" height="1.58586" rx="0.792929" fill="#E0F3FD" stroke="#282828"/>
<rect x="9.55045" y="10.5505" width="13.8687" height="8.69697" rx="1.5" fill="#E0F3FD" stroke="#282828"/>
<path d="M19.3938 10.0505V5.05617C19.3938 3.9516 20.2893 3.05617 21.3938 3.05617H29.6789C30.2467 3.05617 30.707 2.59588 30.707 2.02808V2.02808C30.707 1.46029 30.2467 1 29.6789 1H19.2195C18.909 1 18.6028 1.07229 18.3251 1.21115L17.7104 1.51846C17.5421 1.60264 17.3565 1.64646 17.1682 1.64646H13.3573C12.6835 1.64646 12.5302 2.59091 13.1695 2.804V2.804C13.412 2.88486 13.5757 3.11185 13.5757 3.36753V10.0505" stroke="#282828"/>
<path d="M0.5 61.1212C0.5 60.3263 1.14444 59.6818 1.93939 59.6818H32.3232C33.1182 59.6818 33.7626 60.3263 33.7626 61.1212C33.7626 62.9873 32.2499 64.5 30.3838 64.5H3.87879C2.01274 64.5 0.5 62.9873 0.5 61.1212Z" fill="#E0F3FD" stroke="#282828"/>
</svg>
