<svg width="101" height="44" viewBox="0 0 101 44" fill="none" xmlns="http://www.w3.org/2000/svg">
<path d="M35.9111 43H101" stroke="#757575" stroke-width="0.408" stroke-miterlimit="4.04"/>
<path fill-rule="evenodd" clip-rule="evenodd" d="M40.2565 27.6192L38.3286 37.5655H38.3574L46.7741 27.5903H48.2128L45.695 40.5062H43.9829L45.9252 30.5454H45.8676L37.4941 40.5494H36.041L38.5588 27.6192" fill="#757575"/>
<path fill-rule="evenodd" clip-rule="evenodd" d="M51.9671 34.7978L56.2834 34.7833L57.0171 30.9922L58.7293 30.9778L56.8733 40.4629H55.1612L56.0244 36.0663L51.7082 36.0807L50.8449 40.4917H49.1328L50.9888 31.021L52.7009 31.0066" fill="#757575"/>
<path fill-rule="evenodd" clip-rule="evenodd" d="M62.9888 34.841H63.0895C63.5499 33.8897 65.5641 30.7328 67.8517 30.7184C68.8301 30.7184 69.2761 31.4679 69.2905 32.3617C69.2905 32.8229 68.9452 34.2789 68.7725 34.8122H68.8876C69.348 33.8608 71.391 30.7184 73.6643 30.7039C74.6426 30.6895 75.0886 31.4391 75.0886 32.3473C75.0886 32.6067 74.9879 33.241 74.8872 33.7023L73.6067 40.3908H71.8946L73.1895 33.7167C73.2182 33.5005 73.2758 33.3275 73.2758 33.0392C73.2758 32.7509 73.1463 32.3761 72.7722 32.3905C71.7076 32.3905 68.902 35.9222 68.4848 36.9745L67.7942 40.4197L66.0821 40.4341L67.3625 33.7455C67.4057 33.5293 67.4633 33.3563 67.4633 33.068C67.4633 32.7797 67.3338 32.4049 66.9597 32.4049C65.8806 32.4193 63.2621 35.7636 62.6578 37.0033L61.9816 40.4485L60.2695 40.4629L62.1111 30.9922L63.8232 30.9778" fill="#757575"/>
<path fill-rule="evenodd" clip-rule="evenodd" d="M83.7923 36.4699H83.6916C82.7276 38.0843 81.0011 40.5781 78.9293 40.5781C77.8071 40.5781 77.3611 39.8141 77.3467 38.7763C77.3467 38.3294 77.4762 37.4933 77.5625 37.0609L78.771 30.8912H80.4831L79.2314 37.4212C79.1883 37.6375 79.1739 37.8537 79.1739 38.0843C79.1739 38.488 79.2314 38.9204 79.6631 38.906C80.9723 38.906 83.3175 35.2878 84.1376 34.2211L84.785 30.8768H86.4971L84.6411 40.3475H82.9434" fill="#757575"/>
<path fill-rule="evenodd" clip-rule="evenodd" d="M92.4251 30.8336L93.4178 37.6375H93.4754L97.4319 30.8192L99.8346 30.8048L97.9786 40.2899H96.2665L97.7916 32.477L97.7053 32.4914L93.7343 39.6556L92.0222 39.67L90.9863 32.4914H90.8569L89.3174 40.3187L88.0801 40.3331L89.9217 30.8481" fill="#757575"/>
<path fill-rule="evenodd" clip-rule="evenodd" d="M15.2796 10.8401C16.258 10.8401 16.5601 10.6094 16.5601 8.00033C16.5601 4.49748 15.1501 1.18203 11.1936 1.18203C7.82692 1.18203 6.67592 3.20013 5.97094 4.72812C5.68319 5.33355 5.51054 5.91015 5.10769 5.91015C4.73362 5.91015 4.70484 5.63627 4.70484 5.40563C4.70484 5.16057 4.748 4.88669 4.84872 4.3245L5.10769 2.63795C5.17963 2.19108 5.28034 1.35501 6.25869 0.922561C7.40968 0.37479 10.1289 0 11.5533 0C17.5528 0 19.9699 4.49748 19.9699 9.51391C19.9699 17.7449 13.5387 24.8371 6.3594 24.8371C5.00698 24.8371 2.28775 24.4334 0.964103 23.2802C0.532479 22.9055 0.331055 22.5451 0.331055 22.2424C0.331055 21.9396 0.388604 20.9883 0.460542 20.6279L0.733903 18.8692C0.805841 18.5233 0.906553 17.817 1.41011 17.817C1.8849 17.817 1.92806 18.2782 1.95684 18.4656C2.15826 20.181 2.6906 23.655 6.37379 23.655C11.0641 23.655 15.2077 18.4224 15.8407 13.5213C15.9702 12.4402 15.9702 12.1086 15.4091 12.1086H11.6108C9.25128 12.1086 8.64701 13.1609 7.94202 14.7033C7.71182 15.2078 7.36652 16.3178 6.83419 16.3178C6.66154 16.3178 6.50327 16.1448 6.50327 15.943C6.50327 14.4583 7.71182 12.7717 8.24416 9.0238C8.31609 8.4472 8.41681 7.76969 8.89159 7.76969C9.39515 7.76969 9.32322 8.27422 9.39515 8.87965C9.55342 10.768 10.2728 10.8401 11.5101 10.8401" fill="#0276A5"/>
<path fill-rule="evenodd" clip-rule="evenodd" d="M24.718 14.2853C25.1784 12.5555 25.5381 11.2726 25.5381 10.1914C25.5381 9.73016 25.3366 9.52835 25.0777 9.52835C24.4158 9.52835 23.0059 11.6618 22.5167 12.4834C22.416 12.642 22.2577 12.9303 22.0563 12.9303C21.9268 12.9303 21.7686 12.8294 21.7686 12.5411C21.7686 12.2672 21.898 11.9789 22.0995 11.6474C23.1929 9.71575 25.5093 7.02014 27.2502 7.02014C28.4875 7.02014 28.5307 8.27425 28.5307 8.69228C28.5307 10.2635 27.9983 12.6997 27.5523 14.2709L26.9624 16.3034H27.0631C28.4443 13.2186 32.1419 7.02014 35.6381 7.02014C37.0193 7.02014 37.7386 8.04361 37.7386 9.51394C37.7386 10.7969 37.2063 12.2095 36.7891 13.4781L34.6885 19.9504C34.559 20.3396 34.2281 21.4928 34.2281 21.9541C34.2281 22.3145 34.3576 22.5163 34.6166 22.5163C35.3072 22.5163 37.1056 19.9216 37.4653 19.3594C37.566 19.2008 37.6955 18.9702 37.9544 18.9702C38.0839 18.9702 38.2566 19.0711 38.2566 19.3306C38.2566 19.4603 38.1846 19.7342 37.8969 20.2531C36.7891 22.1559 34.3 24.8803 32.6311 24.8803C31.8398 24.8803 31.1636 24.3182 31.1636 23.0496C31.1636 22.2568 31.3938 21.2766 32.0844 19.0134L34.2137 12.1807C34.4439 11.3879 34.6453 10.7392 34.6453 10.2491C34.6453 9.35537 34.1418 9.29771 33.9547 9.29771C32.703 9.29771 31.4657 10.6383 30.3866 12.0798C27.3077 16.1881 26.3294 19.763 25.5381 22.2856L25.1784 23.4677C24.9482 24.1596 24.718 24.2172 24.3871 24.2172H22.5167C22.3584 24.2172 22.1139 24.2461 22.2577 23.6983" fill="#0276A5"/>
<path fill-rule="evenodd" clip-rule="evenodd" d="M53.1183 17.4422C52.8449 18.4368 52.1975 20.9594 52.1975 21.7811C52.1975 22.1126 52.2263 22.4442 52.5572 22.4442C52.9888 22.4442 53.8089 21.7811 54.7872 20.2531L55.3771 19.3305C55.4778 19.1576 55.6505 18.7972 55.8663 18.7972C56.0246 18.7972 56.1972 18.8981 56.1972 19.1287C56.1972 19.3305 56.0821 19.5179 55.7656 20.1089C54.6865 22.0406 52.4277 24.9092 50.1976 24.9092C49.8667 24.9092 49.1186 24.8659 49.1186 23.4244C49.1186 22.3144 49.4783 20.5702 50.4278 17.2836L50.917 15.5826H50.8451C47.9532 21.5937 44.0686 24.9092 41.8385 24.9092C40.9177 24.9092 40.1264 24.347 40.1264 22.646C40.1264 21.4207 40.4861 20.1522 41.1479 18.1485L43.0183 12.3681C43.5075 10.8545 43.6801 10.2923 43.6801 9.80222C43.6801 9.36977 43.4787 9.34094 43.378 9.34094C42.5004 9.34094 41.0616 11.6041 40.63 12.3681C40.5293 12.5267 40.4286 12.7285 40.2127 12.7285C40.0689 12.7285 39.8818 12.6276 39.8818 12.296C39.8818 12.0942 39.9538 11.7771 40.5293 10.8833C42.0975 8.46162 43.9391 7.04895 45.2484 7.04895C46.3706 7.04895 46.6583 7.97151 46.6583 8.99498C46.6583 9.54275 46.4569 10.3356 45.9102 12.1663L43.6514 19.6909C43.4787 20.2675 43.2197 21.0315 43.2197 21.6946C43.2197 22.0261 43.2917 22.5163 43.8816 22.5163C44.3132 22.5163 44.9894 22.228 46.5001 20.6711C49.1905 17.9467 51.7083 12.8582 52.4277 9.61482L52.6867 8.43279C52.7586 8.07242 52.9456 7.71204 53.5068 7.71204H55.3052C55.8231 7.71204 55.6073 8.20215 55.5642 8.36072" fill="#0276A5"/>
<path fill-rule="evenodd" clip-rule="evenodd" d="M62.2836 15.6691C63.7223 14.6889 65.5208 13.3772 65.5208 10.941C65.5208 9.36978 64.6 8.70669 63.7511 8.70669C62.2548 8.70669 60.5715 10.3788 59.9528 11.2437C59.7946 11.46 59.5931 11.7627 59.3773 11.7627C59.2478 11.7627 59.0464 11.6618 59.0464 11.3302C59.0464 11.0275 59.2766 10.768 59.5068 10.4797C60.629 9.09589 62.2692 7.03455 65.1755 7.03455C67.6645 7.03455 68.5853 8.60578 68.5853 10.177C68.5853 12.3681 67.0171 13.7952 65.046 15.2079C63.0174 16.6494 60.4564 18.5233 60.4564 21.118C60.4564 22.5307 61.2045 23.1505 62.298 23.1505C64.0101 23.1505 65.3769 21.8099 66.8156 20.2387C67.1034 19.936 67.2329 19.8062 67.3336 19.8062C67.4631 19.8062 67.6213 19.936 67.6213 20.1666C67.6213 20.4261 67.4631 20.6279 67.3624 20.7865C64.6431 24.5055 62.6433 24.8803 61.0463 24.8803C58.0968 24.8803 57.4062 22.9487 57.4062 21.637C57.4062 19.345 59.0752 17.9035 60.3557 17.0097" fill="#0276A5"/>
<path fill-rule="evenodd" clip-rule="evenodd" d="M80.2965 9.88871C80.2965 9.26886 80.167 8.01476 78.9297 8.01476C77.0881 8.01476 74.412 10.6671 73.3905 16.4475C76.5989 16.1881 80.2965 14.3862 80.2965 9.88871ZM80.6706 19.5323C80.7713 19.4026 80.8576 19.172 81.059 19.172C81.1885 19.172 81.3612 19.2729 81.3612 19.5035C81.3612 19.8062 80.9583 20.4549 80.7425 20.8153C78.6707 24.1019 76.3255 24.8947 74.7141 24.8947C71.8654 24.8947 70.1533 22.4298 70.1533 18.826C70.1533 12.887 74.8436 7.04895 79.4188 7.04895C81.6777 7.04895 83.1596 8.62019 83.1596 10.9122C83.1596 13.8384 80.6706 16.8223 73.3042 17.4133C73.2322 17.8458 73.2035 18.2927 73.2035 18.7251C73.2035 22.1991 75.0307 22.8622 76.081 22.8622C77.6492 22.8622 79.3613 21.4207 80.3684 19.9792L80.6706 19.5323Z" fill="#0276A5"/>
<path fill-rule="evenodd" clip-rule="evenodd" d="M87.1875 13.9537C87.4177 13.0744 87.9788 10.9698 87.9788 10.1482C87.9788 9.4995 87.8062 9.3986 87.6479 9.3986C86.8998 9.3986 85.5186 11.5608 85.1301 12.296C85.0294 12.4546 84.8711 12.7861 84.5834 12.7861C84.382 12.7861 84.2812 12.5843 84.2812 12.3969C84.2812 12.1374 84.4395 11.878 84.6122 11.5753C85.4322 10.1914 87.6911 7.04895 89.5471 7.04895C90.7844 7.04895 90.957 8.25981 90.957 9.1103C90.957 10.5518 90.5398 12.0654 90.2377 13.3051L89.9211 14.6457C89.878 14.8042 89.8204 14.9772 90.0794 14.9772H95.115C95.3452 14.9772 95.4171 14.7754 95.4459 14.6745L97.158 8.2454C97.23 7.98593 97.3163 7.69763 97.676 7.69763H99.719C100.179 7.69763 100.107 8.08683 100.05 8.31747L96.971 19.8639C96.5825 21.3054 96.5394 21.6946 96.5394 21.8388C96.5394 22.2424 96.6976 22.4009 96.899 22.4009C97.2587 22.4009 97.8774 21.9973 99.6471 19.1864C99.7622 19.0278 99.8916 18.7539 100.151 18.7539C100.352 18.7539 100.453 18.8837 100.453 19.1143C100.453 19.345 100.323 19.6044 100.064 20.0945C98.7838 22.4586 96.7264 24.8947 94.8848 24.8947C93.9065 24.8947 93.4748 24.001 93.4748 23.0208C93.4748 22.2424 93.705 21.4063 93.9928 20.2675L94.9999 16.462C95.1006 16.1304 94.8992 16.0583 94.7697 16.0583H89.8204C89.5614 16.0583 89.4895 16.1592 89.432 16.3899L87.5616 23.41C87.3746 24.174 87.0005 24.2316 86.8134 24.2316H84.9431C84.4251 24.2316 84.6553 23.6406 84.6841 23.4821" fill="#0276A5"/>
<path d="M50.9463 28.0371H101" stroke="#757575" stroke-width="0.408" stroke-miterlimit="4.04"/>
<path d="M0 28.0371H35.6377" stroke="#757575" stroke-width="0.408" stroke-miterlimit="4.04"/>
</svg>
