<svg width="109" height="89" viewBox="0 0 109 89" fill="none" xmlns="http://www.w3.org/2000/svg">
<path d="M45.08 5.32001L29.68 0L5.88 46.48C1.96 53.48 0 59.92 0 65.52C0 72.24 2.24 77.84 6.72 82.32C11.2 86.8 17.08 88.76 24.08 88.76C31.08 88.76 36.96 86.8 41.44 82.32C45.92 77.84 48.44 72.24 48.44 65.52C48.44 59.92 46.48 54.88 43.12 50.68C39.76 46.48 35.28 43.68 29.68 42.56L45.08 5.32001ZM105.56 5.32001L90.16 0L66.36 46.48C62.44 53.48 60.48 59.92 60.48 65.52C60.48 72.24 62.72 77.84 67.2 82.32C71.68 86.8 77.56 88.76 84.84 88.76C91.56 88.76 97.44 86.8 101.92 82.32C106.4 77.84 108.92 72.24 108.92 65.52C108.92 59.92 106.96 54.88 103.6 50.68C100.24 46.48 95.76 43.68 90.16 42.56L105.56 5.32001Z" fill="#E0F3FD"/>
</svg>
