<svg width="62" height="84" viewBox="0 0 62 84" fill="none" xmlns="http://www.w3.org/2000/svg">
<path d="M61.7075 28.5363C61.7075 28.5363 43.7249 18.7683 38.2165 6.94459C32.891 -4.4863 31.6382 2.81568 27.5677 10.1198C23.4972 17.424 21.534 22.5459 13.3908 25.4047C8.28062 27.1985 9.19331 44.7922 18.5204 61.8142C18.5204 61.8142 27.2556 57.4321 20.6773 54.2568C14.099 51.0816 5.32944 56.797 8.77571 63.4662C12.222 70.1353 19.4245 63.1475 20.6773 66.0064C21.9301 68.8652 28.3512 83.6088 34.9295 82.9737C43.9725 82.1008 61.3954 36.7919 59.2019 32.0301C57.0084 27.2662 38.5307 22.8208 36.9637 16.7889C35.3966 10.7549 34.1438 13.2951 34.1438 21.5529C34.1438 29.8107 34.2278 78.2469 34.2278 78.2469" stroke="url(#paint0_linear)" stroke-miterlimit="10"/>
<path d="M10.9482 62.7888C7.96996 61.8418 5.101 60.9564 2 60.5596" stroke="url(#paint1_linear)" stroke-miterlimit="10" stroke-linecap="round"/>
<path d="M10.3458 58.7296C8.08177 57.4468 5.91703 55.85 3.41862 55" stroke="url(#paint2_linear)" stroke-miterlimit="10" stroke-linecap="round"/>
<path d="M18.7122 55.3775C19.8383 53.4971 20.7879 51.4604 22.2247 49.7497" stroke="url(#paint3_linear)" stroke-miterlimit="10" stroke-linecap="round"/>
<path d="M21.3254 56.5991C23.0967 55.5664 24.791 54.3111 26.745 53.5807" stroke="url(#paint4_linear)" stroke-miterlimit="10" stroke-linecap="round"/>
<path d="M12.98 56.8021C12.0386 55.0011 11.2584 53.2173 10.0072 51.5928C9.58908 51.0498 9.08823 50.5784 8.72257 50" stroke="url(#paint5_linear)" stroke-miterlimit="10" stroke-linecap="round"/>
<defs>
<linearGradient id="paint0_linear" x1="8.00001" y1="12.9574" x2="-8.19381" y2="62.5827" gradientUnits="userSpaceOnUse">
<stop offset="0.199468" stop-color="#31AFF2"/>
<stop offset="1" stop-color="#5553F0"/>
</linearGradient>
<linearGradient id="paint1_linear" x1="2.02948" y1="60.6994" x2="4.39445" y2="65.3104" gradientUnits="userSpaceOnUse">
<stop offset="0.192708" stop-color="#31AFF2"/>
<stop offset="1" stop-color="#5553F0"/>
</linearGradient>
<linearGradient id="paint2_linear" x1="3.31163" y1="54.9624" x2="6.95157" y2="60.6436" gradientUnits="userSpaceOnUse">
<stop offset="0.192708" stop-color="#31AFF2"/>
<stop offset="1" stop-color="#5553F0"/>
</linearGradient>
<linearGradient id="paint3_linear" x1="22.2858" y1="49.6757" x2="22.5918" y2="54.9807" gradientUnits="userSpaceOnUse">
<stop offset="0.192708" stop-color="#31AFF2"/>
<stop offset="1" stop-color="#5553F0"/>
</linearGradient>
<linearGradient id="paint4_linear" x1="26.8287" y1="53.5486" x2="24.4152" y2="58.0624" gradientUnits="userSpaceOnUse">
<stop offset="0.192708" stop-color="#31AFF2"/>
<stop offset="1" stop-color="#5553F0"/>
</linearGradient>
<linearGradient id="paint5_linear" x1="8.20985" y1="49.9752" x2="10.6845" y2="57.5707" gradientUnits="userSpaceOnUse">
<stop offset="0.192708" stop-color="#31AFF2"/>
<stop offset="1" stop-color="#5553F0"/>
</linearGradient>
</defs>
</svg>
