<svg width="103" height="101" viewBox="0 0 103 101" fill="none" xmlns="http://www.w3.org/2000/svg">
<path d="M18.681 62.9705C25.9001 77.1435 34.5645 83.2177 55.3575 80.9045C76.1505 78.5913 85.391 58.9211 82.2148 42.1437C79.0387 25.3663 65.7527 20.74 58.5337 18.1356C51.3146 15.5313 56.2242 0.490119 50.7359 1.35824C45.2477 2.22635 52.3067 14.5616 49.2932 15.8197C45.829 17.2648 36.5859 19.5807 31.3883 24.2071C28.8629 26.4562 28.5002 24.2071 24.4573 22.4708C20.4145 20.7346 15.7929 16.6852 15.2169 20.4461C14.6382 24.2071 27.3455 28.2565 25.612 29.9927C23.8786 31.729 14.3502 46.1905 14.6382 50.5311C14.9262 54.869 3.08562 51.3992 1.35487 54.292C-0.378552 57.1849 4.53102 56.6052 9.72861 57.7618C14.9262 58.9184 14.9262 67.8854 19.2597 72.803C23.5906 77.7205 14.0622 92.182 17.817 92.4732C21.5719 92.7616 26.1907 82.638 28.2122 82.638C30.2336 82.638 41.7862 87.8441 43.8076 86.399C45.829 84.9539 43.5196 99.7039 46.4077 99.9951C49.2959 100.284 49.5839 87.8468 51.0293 86.1105C52.4747 84.3743 61.1365 84.6654 65.4673 82.0611C69.7982 79.4567 79.0413 90.7396 81.6388 89.8715C84.2362 89.0034 74.9958 79.4594 74.1291 77.7232C73.2624 75.9869 83.3695 69.6243 85.6816 63.5502C87.9938 57.476 100.12 62.3936 101.853 59.7892C103.587 57.1849 89.4365 54.5832 87.9911 54.0035C86.5484 53.4239 90.3005 42.4322 85.391 35.4899C80.4814 28.5477 100.12 25.0779 96.6528 22.185C93.186 19.2922 85.679 26.2345 82.2148 25.946C78.7506 25.6575 75.2838 23.0532 74.4171 18.1356C73.5504 13.2181 80.4814 2.22635 76.1505 1.06975C71.8196 -0.0868453 72.1077 13.5065 68.6408 14.6658C65.1767 15.8224 56.5122 17.8471 55.6455 25.369C54.7788 32.8909 81.6361 56.3194 66.6194 67.0226C58.131 73.0701 48.3625 68.3422 47.5598 60.9485C46.1171 47.6436 66.5207 42.6459 71.817 51.9815C79.036 64.7094 39.4741 77.1462 34.2738 71.0721C31.479 67.8079 36.5833 64.9979 38.8954 67.6023C41.2048 70.2066 37.7513 77.1329 31.3857 72.2313C27.6308 69.3385 27.6308 60.9511 33.4071 50.8276C39.1834 40.704 35.7165 31.4485 29.0762 37.2315C26.3027 39.6462 38.0287 49.0913 45.5384 34.3387" stroke="url(#paint0_linear)" stroke-miterlimit="10" stroke-linecap="round"/>
<defs>
<linearGradient id="paint0_linear" x1="9.4459" y1="63.9062" x2="51.0785" y2="99.4094" gradientUnits="userSpaceOnUse">
<stop offset="0.385417" stop-color="#31AFF2"/>
<stop offset="1" stop-color="#5553F0"/>
</linearGradient>
</defs>
</svg>
