<svg width="119" height="86" viewBox="0 0 119 86" fill="none" xmlns="http://www.w3.org/2000/svg">
<path d="M62.9243 39.6605C62.9243 39.6605 72.2471 45.4515 75.62 41.6759C80.8006 35.8767 60.156 22.7057 59.1929 30.422C58.9752 32.1659 62.4956 34.1773 62.4956 34.1773" stroke="url(#paint0_linear)" stroke-linecap="round" stroke-linejoin="round"/>
<path d="M41 18.5C41 18.5 43.5887 15.9839 49 15C54.5 14 63 17 63 17" stroke="url(#paint1_linear)" stroke-linecap="round" stroke-linejoin="round"/>
<path d="M113.696 79.6702C116.93 62.4588 132.694 22.7121 74.0856 7.55253C15.4774 -7.607 -6.75093 5.50386 3.35286 26.8126C13.4566 48.1213 76.5086 94.8328 91.4647 83.3597C106.421 71.8865 80.1479 55.0861 61.1503 45.6616C42.1526 36.2371 33.8638 22.652 47.8126 20.2556C71.6594 16.1582 113.291 47.2993 77.7217 55.494C57.6171 60.1256 52.8709 54.2252 52.2596 53.4453C48.5 48.6492 48.9768 43.8007 44 40.5387C38.7119 37.0727 28 38.5111 28 38.5111" stroke="url(#paint2_linear)" stroke-miterlimit="10" stroke-linecap="round"/>
<defs>
<linearGradient id="paint0_linear" x1="63.0047" y1="30.8193" x2="62.6953" y2="39.108" gradientUnits="userSpaceOnUse">
<stop offset="0.240628" stop-color="#31AFF2"/>
<stop offset="1" stop-color="#5553F0"/>
</linearGradient>
<linearGradient id="paint1_linear" x1="44.5491" y1="15.1157" x2="44.4987" y2="17.3149" gradientUnits="userSpaceOnUse">
<stop offset="0.240628" stop-color="#31AFF2"/>
<stop offset="1" stop-color="#5553F0"/>
</linearGradient>
<linearGradient id="paint2_linear" x1="10.7875" y1="54.4681" x2="88.0729" y2="83.5316" gradientUnits="userSpaceOnUse">
<stop offset="0.192708" stop-color="#31AFF2"/>
<stop offset="1" stop-color="#5553F0"/>
</linearGradient>
</defs>
</svg>
