<svg width="117" height="90" viewBox="0 0 117 90" fill="none" xmlns="http://www.w3.org/2000/svg">
<path d="M72.8318 47.5107C72.8318 47.5107 71.7697 14.8687 41.6213 18.1812C19.6347 21.7887 16.3047 39.7817 19.6201 51.0651C20.424 53.8011 20.2365 56.8732 18.4455 59.0922L16.6667 61.296C16.3398 61.7009 15.7571 61.7875 15.3267 61.4952L9.9303 57.8303C8.20168 56.6563 5.86069 57.0107 4.557 58.6438L2.92977 60.682C0.685863 63.4928 1.40193 67.6326 4.45957 69.5263L5.30671 70.051C6.32648 70.6826 6.56476 72.0636 5.81561 73.0004L2.19969 77.5221C-0.15718 80.4693 0.196561 84.7439 3.00585 87.2636V87.2636C5.92498 89.8819 10.4121 89.6451 13.0395 86.7342L16.5187 82.8796C17.1067 82.2282 18.0506 82.0361 18.8463 82.4059L22.7483 84.2194C25.6182 85.5532 28.997 85.1378 31.4583 83.1485V83.1485C33.6402 81.3852 33.7536 78.0979 31.6986 76.1884L28.1661 72.906C27.2392 72.0447 27.3349 70.55 28.3641 69.814L28.5884 69.6536C29.9173 68.7034 31.9222 68.8943 33.427 69.5303C35.8281 70.5451 40.3346 71.5112 48.3578 70.5808L47.4559 73.4343C47.1694 74.341 48.1908 75.0982 48.975 74.5604L56.456 69.4302C58.7041 67.8885 61.5929 67.6041 64.2725 68.1044C68.9686 68.9812 77.1666 69.3908 86.662 64.9792C100.798 58.4118 102.797 40.5673 96.9016 30.8762C96.3684 29.9996 96.4507 28.8513 97.1968 28.1468L107.05 18.8416C108.16 17.7929 109.882 17.7459 111.048 18.7326L113.945 21.1846C114.58 21.7212 115.554 21.2955 115.59 20.4656L116.338 3.63673C116.422 1.75173 114.766 0.258305 112.899 0.536261L94.8842 3.21937C94.0871 3.3381 93.7507 4.30277 94.3011 4.89146L97.4051 8.21091C98.1388 8.99554 98.1216 10.2196 97.3662 10.9834L88.4055 20.0429C87.3922 21.0674 85.7835 21.2432 84.4733 20.6432C80.6973 18.914 72.3048 16.2383 61.4767 19.832C46.5812 24.7756 39.1334 43.231 46.5812 53.7761L43.6777 54.0818C42.7557 54.1788 42.4507 55.3697 43.2125 55.898L46.4107 58.116C47.1825 58.6512 46.8575 59.859 45.9213 59.9345L43.719 60.1122C42.744 60.1908 42.2476 58.9674 43.0016 58.3445L43.7456 57.7298C43.7456 57.7298 32.751 59.7067 32.751 45.8658C32.751 32.025 46.2271 29.0582 53.6749 34.9917C61.1227 40.9252 60.0669 44.8759 60.0669 44.8759L74.6851 48.4786C75.6019 48.7046 75.7236 49.9583 74.8673 50.3564L71.7697 51.7963L72.3029 51.9527C76.1771 53.0891 80.4878 52.2646 82.8087 48.9609C85.1359 45.6483 87.1381 41.0736 85 36.7071C79.112 27.4779 69.2881 32.022 69.2881 32.022" stroke="url(#paint0_linear)" stroke-miterlimit="10"/>
<defs>
<linearGradient id="paint0_linear" x1="8.20197" y1="58.1195" x2="40.0948" y2="55.5871" gradientUnits="userSpaceOnUse">
<stop offset="0.385417" stop-color="#31AFF2"/>
<stop offset="1" stop-color="#5553F0"/>
</linearGradient>
</defs>
</svg>
