<svg width="62" height="94" viewBox="0 0 62 94" fill="none" xmlns="http://www.w3.org/2000/svg">
<path d="M33.5597 68.5374V23.3158C33.5597 22.2179 35.3006 21.8193 35.8591 22.7646C37.0528 24.785 38.631 26.982 40.398 28.2293C43.6825 30.5478 47.4583 32.4568 50.7191 33.8871C55.0776 35.7989 57.7662 40.4963 56.495 45.0828C54.7163 51.5003 52.0712 60.1531 49.5157 65.156C45.7523 72.5235 40.1868 82.3676 36.7217 88.4077C35.2601 90.9554 31.6776 91.0712 30.0938 88.5977C25.7583 81.8269 18.4682 69.8544 14.8685 60.5971C11.9647 53.1297 10.9071 42.1037 10.5242 35.5429C10.3312 32.2353 12.3548 29.2688 15.3259 27.8026C17.6442 26.6585 20.2916 25.1905 22.1626 23.6705C26.0077 20.5467 29.5643 14.7742 31.6489 10.9753C32.4575 9.50169 34.6943 9.48697 35.5041 10.9599C37.2805 14.1908 39.9989 18.761 42.4693 21.3812C50.6455 30.0528 60.4569 33.6999 60.4569 33.6999" stroke="url(#paint0_linear)" stroke-linecap="round" stroke-linejoin="round"/>
<path d="M0.742438 10.5729C3.03353 9.43071 5.33355 8.56034 7.80247 7.86875C9.53994 7.38206 11.2742 6.85345 12.9419 6.1621" stroke="url(#paint1_linear)" stroke-linecap="round" stroke-linejoin="round"/>
<path d="M5.85814 1.90659C5.92759 4.04715 6.30996 5.96634 6.92264 8.03174C7.30799 9.33077 7.64177 10.6028 7.86236 11.9403C7.96685 12.5738 8.07991 13.1414 8.32335 13.723" stroke="url(#paint2_linear)" stroke-linecap="round" stroke-linejoin="round"/>
<path d="M50.8396 7.56043C52.6601 6.65282 54.4878 5.96121 56.4496 5.41167C57.8302 5.02493 59.2083 4.60489 60.5335 4.05553" stroke="url(#paint3_linear)" stroke-linecap="round" stroke-linejoin="round"/>
<path d="M54.9046 0.674042C54.9598 2.37497 55.2636 3.9 55.7505 5.5412C56.0567 6.57343 56.3219 7.5842 56.4972 8.647C56.5802 9.15039 56.6701 9.60141 56.8635 10.0636" stroke="url(#paint4_linear)" stroke-linecap="round" stroke-linejoin="round"/>
<defs>
<linearGradient id="paint0_linear" x1="14.1252" y1="26.832" x2="4.21759" y2="58.5074" gradientUnits="userSpaceOnUse">
<stop offset="0.0522402" stop-color="#31AFF2"/>
<stop offset="1" stop-color="#5553F0"/>
</linearGradient>
<linearGradient id="paint1_linear" x1="2.38045" y1="8.12842" x2="5.05736" y2="8.69235" gradientUnits="userSpaceOnUse">
<stop offset="0.385417" stop-color="#31AFF2"/>
<stop offset="1" stop-color="#5553F0"/>
</linearGradient>
<linearGradient id="paint2_linear" x1="4.3921" y1="8.51225" x2="5.85032" y2="8.89499" gradientUnits="userSpaceOnUse">
<stop offset="0.385417" stop-color="#31AFF2"/>
<stop offset="1" stop-color="#5553F0"/>
</linearGradient>
<linearGradient id="paint3_linear" x1="52.1412" y1="5.61801" x2="54.2683" y2="6.06612" gradientUnits="userSpaceOnUse">
<stop offset="0.385417" stop-color="#31AFF2"/>
<stop offset="1" stop-color="#5553F0"/>
</linearGradient>
<linearGradient id="paint4_linear" x1="53.7397" y1="5.92302" x2="54.8984" y2="6.22715" gradientUnits="userSpaceOnUse">
<stop offset="0.385417" stop-color="#31AFF2"/>
<stop offset="1" stop-color="#5553F0"/>
</linearGradient>
</defs>
</svg>
