<svg width="90" height="87" viewBox="0 0 90 87" fill="none" xmlns="http://www.w3.org/2000/svg">
<path d="M89.5 42.0128C89.5 53.5606 81.2107 64.0732 73.1877 71.6898C65.4044 79.0788 54.8497 86.5 43.2766 86.5C29.8931 86.5 17.8852 77.567 9.99161 68.0903C4.05399 60.9618 0.5 51.89 0.5 42.0128C0.5 37.1534 2.57767 32.4551 5.44271 28.0416C7.81171 24.3923 10.6886 20.981 13.32 17.8609C13.8723 17.2061 14.4137 16.5641 14.9374 15.9354C18.8946 11.1845 22.6324 7.33293 27.0485 4.66379C31.4525 2.002 36.5589 0.5 43.2766 0.5C49.121 0.5 55.8372 1.338 62.0561 3.0944C68.2825 4.85295 73.9645 7.51921 77.7834 11.1447C85.691 18.6518 89.5 30.3354 89.5 42.0128Z" stroke="url(#paint0_linear)"/>
<path d="M40.4715 69.7975C33.0731 68.617 27.1488 62.31 23.0397 56.4238C19.0541 50.7144 15.3614 43.2823 16.5247 35.9914C17.871 27.5539 24.8138 20.8716 31.7292 16.8367C36.911 13.8132 43.1019 12.4962 49.4528 13.5095C52.5512 14.0039 55.3508 15.7873 57.9047 18.0567C60.0164 19.9333 61.9228 22.1064 63.6742 24.103C64.0424 24.5227 64.4038 24.9347 64.7588 25.3344C67.4275 28.3396 69.5238 31.0981 70.7906 34.1559C72.0517 37.2 72.5025 40.5705 71.8252 44.8151C71.2343 48.5185 70.0149 52.6896 68.2547 56.4497C66.4912 60.2167 64.2048 63.5285 61.5037 65.5602C55.8921 69.7812 47.997 70.9983 40.4715 69.7975Z" stroke="url(#paint1_linear)"/>
<path d="M52 34.457C52 34.457 39.0001 36.5283 39 43.1567C38.9999 48.5952 44.5151 50.1994 47.2727 48.128C54.848 42.4376 41.7575 27 41.7575 27" stroke="url(#paint2_linear)"/>
<path d="M48.7065 16.8519C48.7065 19.7643 49.0799 22.9644 48.3684 25.8103" stroke="url(#paint3_linear)" stroke-linecap="round"/>
<path d="M61.5525 27.6696C60.8075 29.739 59.1447 30.6586 57.4958 31.8952" stroke="url(#paint4_linear)" stroke-linecap="round"/>
<path d="M66.7922 39.8394C64.1443 41.1633 61.6541 41.8677 58.679 41.8677" stroke="url(#paint5_linear)" stroke-linecap="round"/>
<path d="M63.2426 53.5305C61.3814 53.5305 60.066 53.0583 58.7635 51.7557C58.1318 51.1241 57.4429 50.2081 56.6506 49.812" stroke="url(#paint6_linear)" stroke-linecap="round"/>
<path d="M54.9606 62.6579C53.087 62.2222 52.0104 60.6416 51.073 59.0708C50.4516 58.0296 49.7944 57.1102 49.5518 55.8969" stroke="url(#paint7_linear)" stroke-linecap="round"/>
<path d="M37.8888 64.1791C37.8888 62.5135 37.7812 61.0405 38.2926 59.4276C38.4586 58.904 38.7348 58.4299 38.903 57.9252" stroke="url(#paint8_linear)" stroke-linecap="round"/>
<path d="M27.4092 52.5164C28.345 50.3928 30.5257 47.4456 33.1561 47.4456" stroke="url(#paint9_linear)" stroke-linecap="round"/>
<path d="M23.3525 40.0084C25.4557 39.3775 27.3784 38.4872 29.6065 38.4872C30.8043 38.4872 31.7134 38.7951 32.818 39.1633" stroke="url(#paint10_linear)" stroke-linecap="round"/>
<path d="M26.9021 26.3174C28.8596 26.3174 30.6294 26.1788 32.3861 27.1625C32.9892 27.5002 34.1702 28.0427 34.1702 28.8528" stroke="url(#paint11_linear)" stroke-linecap="round"/>
<defs>
<linearGradient id="paint0_linear" x1="7.52605" y1="55.2812" x2="44.1892" y2="86.9843" gradientUnits="userSpaceOnUse">
<stop offset="0.385417" stop-color="#31AFF2"/>
<stop offset="1" stop-color="#5553F0"/>
</linearGradient>
<linearGradient id="paint1_linear" x1="19" y1="41" x2="40.4414" y2="74.457" gradientUnits="userSpaceOnUse">
<stop offset="0.385417" stop-color="#31AFF2"/>
<stop offset="1" stop-color="#5553F0"/>
</linearGradient>
<linearGradient id="paint2_linear" x1="40.0871" y1="40.9792" x2="47.5274" y2="44.6542" gradientUnits="userSpaceOnUse">
<stop offset="0.385417" stop-color="#31AFF2"/>
<stop offset="1" stop-color="#5553F0"/>
</linearGradient>
<linearGradient id="paint3_linear" x1="48.6123" y1="25.2235" x2="49.0118" y2="25.2065" gradientUnits="userSpaceOnUse">
<stop offset="0.385417" stop-color="#31AFF2"/>
<stop offset="1" stop-color="#5553F0"/>
</linearGradient>
<linearGradient id="paint4_linear" x1="59.7651" y1="31.6184" x2="61.9458" y2="29.7841" gradientUnits="userSpaceOnUse">
<stop offset="0.385417" stop-color="#31AFF2"/>
<stop offset="1" stop-color="#5553F0"/>
</linearGradient>
<linearGradient id="paint5_linear" x1="63.2175" y1="41.7349" x2="63.7781" y2="39.77" gradientUnits="userSpaceOnUse">
<stop offset="0.385417" stop-color="#31AFF2"/>
<stop offset="1" stop-color="#5553F0"/>
</linearGradient>
<linearGradient id="paint6_linear" x1="60.3382" y1="53.287" x2="62.1113" y2="50.5329" gradientUnits="userSpaceOnUse">
<stop offset="0.385417" stop-color="#31AFF2"/>
<stop offset="1" stop-color="#5553F0"/>
</linearGradient>
<linearGradient id="paint7_linear" x1="52.5775" y1="62.2151" x2="55.9065" y2="59.8815" gradientUnits="userSpaceOnUse">
<stop offset="0.385417" stop-color="#31AFF2"/>
<stop offset="1" stop-color="#5553F0"/>
</linearGradient>
<linearGradient id="paint8_linear" x1="38.452" y1="63.7695" x2="39.3726" y2="63.6375" gradientUnits="userSpaceOnUse">
<stop offset="0.385417" stop-color="#31AFF2"/>
<stop offset="1" stop-color="#5553F0"/>
</linearGradient>
<linearGradient id="paint9_linear" x1="30.624" y1="52.1842" x2="33.28" y2="49.5467" gradientUnits="userSpaceOnUse">
<stop offset="0.385417" stop-color="#31AFF2"/>
<stop offset="1" stop-color="#5553F0"/>
</linearGradient>
<linearGradient id="paint10_linear" x1="28.6475" y1="39.9088" x2="28.9303" y2="38.3671" gradientUnits="userSpaceOnUse">
<stop offset="0.385417" stop-color="#31AFF2"/>
<stop offset="1" stop-color="#5553F0"/>
</linearGradient>
<linearGradient id="paint11_linear" x1="30.9679" y1="28.6862" x2="31.8848" y2="26.3892" gradientUnits="userSpaceOnUse">
<stop offset="0.385417" stop-color="#31AFF2"/>
<stop offset="1" stop-color="#5553F0"/>
</linearGradient>
</defs>
</svg>
