<svg width="19" height="65" viewBox="0 0 19 65" fill="none" xmlns="http://www.w3.org/2000/svg">
<rect x="5.01389" y="0.5" width="8.02778" height="8.02778" rx="1.5" fill="#31AFF2" stroke="white"/>
<rect x="4.11111" y="7.72223" width="9.83333" height="8.02778" rx="1.5" fill="#31AFF2" stroke="white"/>
<rect x="3.20833" y="13.1389" width="11.6389" height="11.6389" rx="1.5" fill="#31AFF2" stroke="white"/>
<line x1="5.5" y1="13" x2="5.5" y2="23" stroke="white"/>
<path d="M9 13L9 23" stroke="white"/>
<line x1="12.5" y1="13" x2="12.5" y2="23" stroke="white"/>
<path d="M0.5 26.4102C0.5 25.8833 0.776449 25.395 1.22826 25.1239L4.29611 23.2832C4.52924 23.1433 4.79599 23.0695 5.06786 23.0695H12.9877C13.2596 23.0695 13.5263 23.1433 13.7594 23.2832L16.8273 25.1239C17.2791 25.395 17.5556 25.8833 17.5556 26.4102V63C17.5556 63.8284 16.884 64.5 16.0556 64.5H2C1.17157 64.5 0.5 63.8284 0.5 63V26.4102Z" fill="#31AFF2" stroke="white"/>
<circle cx="9.02778" cy="3.61109" r="0.902778" fill="white"/>
</svg>
