<svg width="82" height="72" viewBox="0 0 82 72" fill="none" xmlns="http://www.w3.org/2000/svg">
<path d="M76.0011 66.8238C73.9168 68.4249 70.9667 69.552 68.1146 70.3338C63.444 71.614 59.3189 67.6221 58.5105 62.8472C57.9905 59.7756 57.0585 56.4349 55.4024 53.6951C52.7023 49.2283 46.489 43.7372 42.318 40.3275C40.5237 38.8607 37.9857 40.0258 38.2978 42.3223C38.5841 44.4285 39.2628 46.6224 40.7736 47.7423C44.9342 50.826 48.5342 43.4472 53.617 44.4397C64.6199 46.5882 59.7062 61.306 49.9474 66.8238C29.1956 78.5573 -14.5891 26.265 7.01401 16.1843C18.0225 11.0474 37.0619 13.6651 51.7822 23.5234C67.8807 34.3047 91.366 55.0206 76.0011 66.8238Z" stroke="url(#paint0_linear)" stroke-linecap="round" stroke-linejoin="round"/>
<circle cx="16.1878" cy="28.2942" r="1.10086" fill="#31AFF2"/>
<circle cx="33.8015" cy="26.0924" r="1.10086" fill="#31AFF2"/>
<circle cx="22.059" cy="45.9079" r="1.10086" fill="#31AFF2"/>
<circle cx="49.2135" cy="33.4315" r="1.10086" fill="#6953F0"/>
<circle cx="46.7994" cy="55.9376" r="1.10086" fill="#6953F0"/>
<circle cx="70.4967" cy="53.2469" r="1.10086" fill="#6953F0"/>
<path d="M48.6623 16.171C49.9557 11.9212 51.0947 8.4881 53.7474 5.20259C54.9804 3.67544 56.9112 2.11793 58.1461 0.634752" stroke="url(#paint1_linear)" stroke-linecap="round" stroke-linejoin="round"/>
<path d="M55.7376 20.1198C58.2581 17.3862 60.6347 14.4503 63.349 11.9093C64.5296 10.8041 65.5555 9.98221 67.1991 9.11729C68.4621 8.45266 69.476 8.06732 70.6002 7.77986" stroke="url(#paint2_linear)" stroke-linecap="round" stroke-linejoin="round"/>
<path d="M63.4854 24.9525C66.9235 22.9858 69.6113 19.8825 73.1315 18.0122C74.6338 17.214 76.4565 16.6604 78.1651 16.7826" stroke="url(#paint3_linear)" stroke-linecap="round" stroke-linejoin="round"/>
<defs>
<linearGradient id="paint0_linear" x1="20.587" y1="16.8487" x2="16.5392" y2="55.3997" gradientUnits="userSpaceOnUse">
<stop offset="0.240628" stop-color="#31AFF2"/>
<stop offset="1" stop-color="#5553F0"/>
</linearGradient>
<linearGradient id="paint1_linear" x1="49.7796" y1="10.3393" x2="51.9736" y2="10.4275" gradientUnits="userSpaceOnUse">
<stop offset="0.385417" stop-color="#31AFF2"/>
<stop offset="1" stop-color="#5553F0"/>
</linearGradient>
<linearGradient id="paint2_linear" x1="57.2485" y1="15.3413" x2="60.9093" y2="15.3721" gradientUnits="userSpaceOnUse">
<stop offset="0.385417" stop-color="#31AFF2"/>
<stop offset="1" stop-color="#5553F0"/>
</linearGradient>
<linearGradient id="paint3_linear" x1="64.8974" y1="21.692" x2="68.5794" y2="21.6155" gradientUnits="userSpaceOnUse">
<stop offset="0.385417" stop-color="#31AFF2"/>
<stop offset="1" stop-color="#5553F0"/>
</linearGradient>
</defs>
</svg>
