<svg width="97" height="88" viewBox="0 0 97 88" fill="none" xmlns="http://www.w3.org/2000/svg">
<path d="M88.9176 30.077C88.9176 30.077 86.2079 17.3703 74.6281 16.4101C63.0483 15.4499 57.1357 21.6838 55.9036 24.562C54.6715 27.4401 54.9169 28.878 53.4393 29.3581C51.9618 29.8382 50.9751 29.3581 50.7297 30.7959C50.4843 32.2338 51.4685 32.4751 50.9751 33.194C50.4818 33.9129 49.4976 34.6318 49.743 35.3508C49.9884 36.0697 50.7297 36.311 50.4818 36.7886C50.2364 37.2687 49.4951 37.0274 49.4951 38.2265C49.4951 39.4255 49.9884 39.9056 49.4951 40.8633C49.0017 41.8211 51.7114 47.3361 61.0749 48.0575C70.4384 48.7789 68.4676 47.0973 64.5233 46.6196C60.5815 46.1395 53.2673 46.5926 50.4792 47.5799C47.7696 48.5401 44.3187 55.0128 44.5666 53.0949C44.812 51.1769 46.2921 42.5449 46.5375 38.9478C46.7652 35.6167 50.4792 34.6318 47.7696 31.276C45.06 27.9202 39.3928 28.878 38.4061 31.276C37.4194 33.6741 39.1448 32.7139 39.8836 33.4328C40.6224 34.1517 40.8703 36.7886 40.129 35.8309C39.3877 34.8731 37.1714 34.1517 35.4485 34.393C33.723 34.6318 31.7522 35.1119 32.2455 32.7139C32.7389 30.3158 36.4352 28.878 36.4352 26.96C36.4352 25.0421 38.6515 24.3232 42.1024 24.3232C45.5508 24.3232 47.2763 24.8033 49.2471 21.9251C51.218 19.047 56.784 18.328 56.3919 13.0543C56.2907 11.6854 56.4197 10.25 56.6094 8.87862C57.0193 5.92414 59.9086 3.92741 62.9167 4.48137C80.3965 7.70422 93.7448 13.0543 95.8447 36.8797C98.3798 65.6367 69.3961 87 44.0606 87C13.6652 87 1 70.8464 1 46.1912C1 21.5361 22.9452 1.00001 48.2832 1.00001C48.2984 1.00001 48.311 1.00001 48.3262 1.00001C50.9296 0.995086 53.1737 2.77516 53.6519 5.26431C54.1629 7.93565 54.3198 11.0625 52.5969 12.0941C50.2035 13.527 50.2338 16.8902 48.263 17.3678C46.2921 17.8479 46.7854 20.4848 44.5666 20.4848C42.3503 20.4848 38.8994 20.0047 37.4219 21.9227C35.9444 23.8406 35.451 24.5595 33.2322 25.2785C31.0134 25.9974 27.813 28.6342 27.0717 31.7512C26.3329 34.8682 27.0717 35.107 25.1008 35.5871C23.1299 36.0672 19.6815 35.5871 17.4627 33.1891C15.2464 30.791 12.7822 24.3182 10.8113 25.0372C8.84047 25.7561 9.08589 29.3532 9.82465 35.107C10.5634 40.8609 10.5634 39.6618 10.0701 42.3012C9.57671 44.9381 10.5634 47.3361 14.9985 47.3361C19.4336 47.3361 21.8978 44.9381 25.3462 45.4182C28.7946 45.8983 31.2588 47.0973 34.7097 45.657C36.797 44.7854 35.6964 43.0201 32.0001 44.458C28.3038 45.8958 22.1458 45.657 18.4494 49.4929C14.7531 53.3288 9.33383 58.605 8.84048 61.003C8.34713 63.4011 9.57924 69.3938 14.0143 72.2719C18.4494 75.1501 24.61 75.3889 27.565 76.3491C30.5226 77.3093 46.7829 79.9462 57.624 69.8763" stroke="url(#paint0_linear)" stroke-miterlimit="10" stroke-linecap="round"/>
<defs>
<linearGradient id="paint0_linear" x1="6.49999" y1="22.7471" x2="36.7834" y2="85.9924" gradientUnits="userSpaceOnUse">
<stop offset="0.423547" stop-color="#31AFF2"/>
<stop offset="1" stop-color="#5553F0"/>
</linearGradient>
</defs>
</svg>
