<svg width="87" height="87" viewBox="0 0 87 87" fill="none" xmlns="http://www.w3.org/2000/svg">
<path d="M24.1842 18.347C24.1842 18.347 16.1493 4.32251 12.8272 5.51303C9.50519 6.70355 18.5602 16.9481 19.7548 19.9359C22.5074 26.8243 -0.0271873 16.8809 1.03654 23.123C1.62777 26.5904 17.3608 26.4653 18.2064 30.5765C19.7015 37.8517 0.828158 42.3358 4.25681 44.8211C8.97453 48.2398 19.9583 35.3154 23.1447 40.2119C26.331 45.1083 8.46811 60.0917 14.4192 59.1652C20.3727 58.2364 26.4546 48.0197 30.7022 51.0354C37.3221 55.7326 24.9256 68.2748 28.0902 70.452C30.6077 72.1822 36.2438 58.7089 39.8445 64.6639C43.4452 70.6188 44.143 88.4836 47.7413 84.7777C51.3396 81.0718 45.9652 71.5267 52.0277 69.954C59.469 68.0247 61.6279 87.3556 64.9572 85.9242C70.351 83.6033 60.5497 69.236 62.4106 67.4363C66.806 63.1838 75.1196 75.6542 79.549 74.0653C83.9784 72.4764 62.018 60.4878 68.6621 58.1021C75.3062 55.7187 85.7206 54.7645 85.9968 52.2514C86.273 49.736 68.6379 54.3337 66.2851 51.5542C63.9299 48.7748 80.7121 38.2269 78.146 35.1973C76.7116 33.5042 62.8904 43.1511 61.0197 41.3653C55.9604 36.5338 67.3028 29.1521 65.7423 27.137C63.3435 24.0425 60.4697 29.3953 53.0066 30.9703C46.7866 32.2812 54.3539 15.9915 51.6521 13.7957C48.8244 11.4981 47.6904 23.3129 41.279 19.7252C35.5557 16.5242 32.2045 0.535541 28.7517 1.01036C24.5307 1.59172 30.2782 11.3313 28.6184 16.7581C26.9586 22.185 19.5173 26.0599 25.0444 36.2188C31.0342 47.2253 40.821 50.908 43.3143 57.259C45.8077 63.61 56.2124 71.1793 60.7774 63.5035C65.3425 55.8276 58.5288 44.6705 51.8799 37.3954C45.231 30.1202 38.2332 18.713 33.387 19.2434C26.0112 20.0494 25.8827 28.5591 31.6206 32.3878C36.4692 35.6235 41.2644 46.5698 44.4483 51.3342C53.7747 65.2823 60.2226 52.2977 49.5053 40.689" stroke="url(#paint0_linear)" stroke-miterlimit="10" stroke-linecap="round"/>
<defs>
<linearGradient id="paint0_linear" x1="0.999989" y1="20.5787" x2="19.6036" y2="84.3256" gradientUnits="userSpaceOnUse">
<stop offset="0.233638" stop-color="#31AFF2"/>
<stop offset="0.801157" stop-color="#5553F0"/>
</linearGradient>
</defs>
</svg>
