<svg width="809" height="455" viewBox="0 0 809 455" fill="none" xmlns="http://www.w3.org/2000/svg">
<g clip-path="url(#clip0)">
<rect width="809" height="455" fill="url(#paint0_linear)"/>
<path d="M-147 294.765C-147 294.765 33.4956 387.222 300.479 307.981C504.476 247.434 547.72 102.982 519.518 69.7892C471.632 13.4299 319.75 87.3077 261.935 167.832C178.91 283.469 325.782 417.995 519.518 401.508C731.506 383.467 876.433 279.207 1073.35 279.207C1462.07 279.207 1477 502 1477 502" stroke="url(#paint1_linear)"/>
<path d="M743.118 338.865C743.118 338.865 737.178 346.286 736.99 346.611L715.87 344.521L732.118 353.234L718.025 368.737L735.757 358.473L743.13 379.747L742.135 353.809L755.285 355.268L742.942 349.6L745.33 340.774L746.923 334.174L743.118 338.865Z" fill="#5553F0"/>
<path d="M63.3777 72H142" stroke="#757575" stroke-width="0.408" stroke-miterlimit="4.04"/>
<path fill-rule="evenodd" clip-rule="evenodd" d="M68.6262 53.4L66.2974 65.4281H66.3322L76.4988 53.3651H78.2367L75.1954 68.9843H73.1273L75.4735 56.9387H75.404L65.2894 69.0366H63.5342L66.5755 53.4" fill="#757575"/>
<path fill-rule="evenodd" clip-rule="evenodd" d="M82.7728 62.0811L87.9864 62.0636L88.8728 57.479L90.9409 57.4615L88.699 68.9319H86.6309L87.6736 63.6151L82.4599 63.6325L81.4172 68.9667H79.3491L81.591 57.5138L83.6591 57.4964" fill="#757575"/>
<path fill-rule="evenodd" clip-rule="evenodd" d="M96.0849 62.1334H96.2066C96.7627 60.9829 99.1957 57.1652 101.959 57.1478C103.141 57.1478 103.679 58.0543 103.697 59.1351C103.697 59.6929 103.28 61.4535 103.071 62.0985H103.21C103.766 60.948 106.234 57.1478 108.98 57.1304C110.162 57.1129 110.701 58.0194 110.701 59.1176C110.701 59.4314 110.579 60.1984 110.457 60.7562L108.911 68.8447H106.842L108.407 60.7737C108.441 60.5122 108.511 60.303 108.511 59.9544C108.511 59.6057 108.354 59.1525 107.903 59.1699C106.617 59.1699 103.228 63.4408 102.724 64.7133L101.889 68.8796L99.8214 68.897L101.368 60.8085C101.42 60.5471 101.49 60.3379 101.49 59.9892C101.49 59.6406 101.333 59.1874 100.881 59.1874C99.5781 59.2048 96.4151 63.249 95.6852 64.7482L94.8684 68.9145L92.8003 68.9319L95.0248 57.479L97.0929 57.4616" fill="#757575"/>
<path fill-rule="evenodd" clip-rule="evenodd" d="M121.215 64.1031H121.093C119.929 66.0555 117.843 69.0713 115.341 69.0713C113.985 69.0713 113.446 68.1474 113.429 66.8923C113.429 66.3519 113.585 65.3408 113.69 64.8179L115.149 57.3569H117.218L115.706 65.2537C115.653 65.5151 115.636 65.7766 115.636 66.0555C115.636 66.5436 115.706 67.0666 116.227 67.0492C117.808 67.0492 120.641 62.6737 121.632 61.3837L122.414 57.3395H124.482L122.24 68.7924H120.189" fill="#757575"/>
<path fill-rule="evenodd" clip-rule="evenodd" d="M131.642 57.2872L132.841 65.5151H132.911L137.69 57.2697L140.592 57.2523L138.35 68.7226H136.282L138.124 59.2744L138.02 59.2919L133.223 67.9556L131.155 67.9731L129.904 59.2919H129.748L127.888 68.7575L126.394 68.7749L128.618 57.3046" fill="#757575"/>
<path fill-rule="evenodd" clip-rule="evenodd" d="M38.4563 33.1089C39.6381 33.1089 40.0031 32.83 40.0031 29.6748C40.0031 25.4388 38.2999 21.4294 33.5207 21.4294C29.4541 21.4294 28.0638 23.8699 27.2122 25.7177C26.8646 26.4499 26.6561 27.1472 26.1695 27.1472C25.7176 27.1472 25.6828 26.816 25.6828 26.537C25.6828 26.2407 25.735 25.9095 25.8566 25.2296L26.1695 23.1901C26.2564 22.6497 26.378 21.6386 27.5598 21.1157C28.9501 20.4532 32.2347 20 33.9552 20C41.2022 20 44.1219 25.4388 44.1219 31.5052C44.1219 41.4589 36.3535 50.0355 27.6814 50.0355C26.0478 50.0355 22.7632 49.5474 21.1643 48.1528C20.643 47.6996 20.3997 47.2638 20.3997 46.8977C20.3997 46.5317 20.4692 45.3811 20.5561 44.9453L20.8863 42.8186C20.9732 42.4003 21.0948 41.5461 21.7031 41.5461C22.2766 41.5461 22.3287 42.1039 22.3635 42.3305C22.6068 44.4049 23.2498 48.6061 27.6988 48.6061C33.3643 48.6061 38.3695 42.2782 39.1341 36.3513C39.2905 35.0439 39.2905 34.643 38.6128 34.643H34.0247C31.1746 34.643 30.4447 35.9155 29.5931 37.7807C29.315 38.3909 28.8979 39.7331 28.2549 39.7331C28.0464 39.7331 27.8552 39.524 27.8552 39.2799C27.8552 37.4844 29.315 35.4448 29.9581 30.9125C30.045 30.2152 30.1666 29.3959 30.7401 29.3959C31.3484 29.3959 31.2615 30.006 31.3484 30.7382C31.5395 33.0218 32.4085 33.1089 33.9031 33.1089" fill="#31AFF2"/>
<path fill-rule="evenodd" clip-rule="evenodd" d="M49.8569 37.2752C50.413 35.1833 50.8475 33.6319 50.8475 32.3244C50.8475 31.7666 50.6042 31.5226 50.2913 31.5226C49.4919 31.5226 47.7888 34.1025 47.1979 35.0961C47.0762 35.2879 46.8851 35.6365 46.6418 35.6365C46.4854 35.6365 46.2942 35.5145 46.2942 35.1659C46.2942 34.8347 46.4506 34.486 46.6939 34.0851C48.0147 31.7492 50.8127 28.4894 52.9156 28.4894C54.4101 28.4894 54.4623 30.006 54.4623 30.5115C54.4623 32.4116 53.8193 35.3576 53.2805 37.2577L52.568 39.7157H52.6896C54.358 35.9852 58.8244 28.4894 63.0475 28.4894C64.7158 28.4894 65.5848 29.7271 65.5848 31.5051C65.5848 33.0566 64.9418 34.7649 64.4378 36.299L61.9004 44.126C61.744 44.5966 61.3443 45.9912 61.3443 46.549C61.3443 46.9848 61.5007 47.2289 61.8136 47.2289C62.6477 47.2289 64.8201 44.0911 65.2546 43.4113C65.3762 43.2195 65.5326 42.9406 65.8455 42.9406C66.0019 42.9406 66.2104 43.0626 66.2104 43.3764C66.2104 43.5333 66.1235 43.8645 65.7759 44.4921C64.4378 46.7931 61.4312 50.0878 59.4153 50.0878C58.4594 50.0878 57.6426 49.4079 57.6426 47.8739C57.6426 46.9151 57.9207 45.7297 58.7549 42.9929L61.3269 34.7301C61.605 33.7713 61.8483 32.9869 61.8483 32.3942C61.8483 31.3134 61.2401 31.2437 61.0141 31.2437C59.5022 31.2437 58.0076 32.8648 56.7042 34.608C52.9851 39.5762 51.8033 43.8994 50.8475 46.95L50.413 48.3794C50.1349 49.2162 49.8569 49.2859 49.4572 49.2859H47.1979C47.0067 49.2859 46.7113 49.3207 46.8851 48.6583" fill="#31AFF2"/>
<path fill-rule="evenodd" clip-rule="evenodd" d="M84.1629 41.0928C83.8327 42.2957 83.0507 45.3463 83.0507 46.3399C83.0507 46.7408 83.0854 47.1418 83.4851 47.1418C84.0065 47.1418 84.9971 46.3399 86.1789 44.4921L86.8914 43.3764C87.0131 43.1673 87.2216 42.7315 87.4823 42.7315C87.6735 42.7315 87.882 42.8535 87.882 43.1324C87.882 43.3764 87.743 43.6031 87.3606 44.3178C86.0572 46.6537 83.3287 50.1227 80.635 50.1227C80.2353 50.1227 79.3316 50.0704 79.3316 48.3272C79.3316 46.9849 79.7661 44.8756 80.9131 40.9011L81.5039 38.8441H81.417C77.9239 46.1133 73.2316 50.1227 70.5378 50.1227C69.4256 50.1227 68.4698 49.4428 68.4698 47.3858C68.4698 45.9041 68.9042 44.3701 69.7037 41.947L71.9629 34.9567C72.5538 33.1264 72.7624 32.4465 72.7624 31.8538C72.7624 31.3309 72.519 31.296 72.3974 31.296C71.3373 31.296 69.5994 34.0328 69.078 34.9567C68.9564 35.1485 68.8347 35.3925 68.574 35.3925C68.4002 35.3925 68.1743 35.2705 68.1743 34.8696C68.1743 34.6255 68.2612 34.242 68.9564 33.1612C70.8507 30.2326 73.0752 28.5243 74.6567 28.5243C76.0122 28.5243 76.3598 29.6399 76.3598 30.8776C76.3598 31.54 76.1165 32.4988 75.4561 34.7127L72.7276 43.8122C72.519 44.5095 72.2062 45.4334 72.2062 46.2353C72.2062 46.6362 72.2931 47.2289 73.0057 47.2289C73.527 47.2289 74.3438 46.8803 76.1686 44.9976C79.4185 41.703 82.4598 35.5494 83.3287 31.6272L83.6415 30.1978C83.7284 29.762 83.9544 29.3262 84.6321 29.3262H86.8045C87.4302 29.3262 87.1695 29.9189 87.1173 30.1106" fill="#31AFF2"/>
<path fill-rule="evenodd" clip-rule="evenodd" d="M95.2332 38.9488C96.9711 37.7634 99.1435 36.1771 99.1435 33.2311C99.1435 31.331 98.0312 30.5291 97.0059 30.5291C95.1985 30.5291 93.1651 32.5512 92.4179 33.5971C92.2267 33.8586 91.9834 34.2247 91.7227 34.2247C91.5663 34.2247 91.323 34.1027 91.323 33.7017C91.323 33.3357 91.6011 33.0219 91.8791 32.6732C93.2347 30.9997 95.2159 28.507 98.7264 28.507C101.733 28.507 102.845 30.4071 102.845 32.3072C102.845 34.9568 100.951 36.6826 98.57 38.391C96.1196 40.1342 93.0261 42.4003 93.0261 45.5381C93.0261 47.2465 93.9298 47.9961 95.2506 47.9961C97.3187 47.9961 98.9697 46.3749 100.708 44.4748C101.055 44.1087 101.212 43.9518 101.333 43.9518C101.49 43.9518 101.681 44.1087 101.681 44.3876C101.681 44.7014 101.49 44.9454 101.368 45.1372C98.0834 49.6347 95.6677 50.0879 93.7387 50.0879C90.176 50.0879 89.3418 47.752 89.3418 46.1657C89.3418 43.394 91.3577 41.6508 92.9045 40.57" fill="#31AFF2"/>
<path fill-rule="evenodd" clip-rule="evenodd" d="M116.992 31.9584C116.992 31.2088 116.835 29.6922 115.341 29.6922C113.116 29.6922 109.884 32.8998 108.65 39.89C112.525 39.5762 116.992 37.3972 116.992 31.9584ZM117.443 43.6205C117.565 43.4636 117.669 43.1847 117.913 43.1847C118.069 43.1847 118.278 43.3067 118.278 43.5856C118.278 43.9517 117.791 44.7361 117.53 45.172C115.028 49.1465 112.195 50.1052 110.249 50.1052C106.808 50.1052 104.74 47.1243 104.74 42.7663C104.74 35.5843 110.405 28.5243 115.932 28.5243C118.66 28.5243 120.45 30.4244 120.45 33.1961C120.45 36.7348 117.443 40.3433 108.545 41.058C108.459 41.5809 108.424 42.1213 108.424 42.6443C108.424 46.8454 110.631 47.6473 111.9 47.6473C113.794 47.6473 115.862 45.9041 117.079 44.1609L117.443 43.6205Z" fill="#31AFF2"/>
<path fill-rule="evenodd" clip-rule="evenodd" d="M125.316 36.8743C125.594 35.8109 126.272 33.2658 126.272 32.2722C126.272 31.4878 126.063 31.3657 125.872 31.3657C124.969 31.3657 123.3 33.9805 122.831 34.8696C122.709 35.0613 122.518 35.4623 122.171 35.4623C121.927 35.4623 121.806 35.2182 121.806 34.9916C121.806 34.6778 121.997 34.364 122.205 33.998C123.196 32.3245 125.924 28.5243 128.166 28.5243C129.661 28.5243 129.869 29.9886 129.869 31.0171C129.869 32.7603 129.365 34.5907 129.001 36.0898L128.618 37.711C128.566 37.9028 128.497 38.112 128.809 38.112H134.892C135.17 38.112 135.257 37.8679 135.292 37.7459L137.36 29.9712C137.447 29.6574 137.551 29.3087 137.985 29.3087H140.453C141.009 29.3087 140.922 29.7794 140.853 30.0583L137.134 44.0214C136.665 45.7646 136.612 46.2353 136.612 46.4096C136.612 46.8977 136.804 47.0895 137.047 47.0895C137.481 47.0895 138.229 46.6014 140.366 43.2021C140.505 43.0104 140.662 42.6792 140.975 42.6792C141.218 42.6792 141.34 42.8361 141.34 43.115C141.34 43.3939 141.183 43.7077 140.87 44.3003C139.324 47.1592 136.838 50.1052 134.614 50.1052C133.432 50.1052 132.911 49.0244 132.911 47.8391C132.911 46.8977 133.189 45.8867 133.536 44.5095L134.753 39.9075C134.875 39.5065 134.631 39.4194 134.475 39.4194H128.497C128.184 39.4194 128.097 39.5414 128.027 39.8203L125.768 48.3097C125.542 49.2336 125.09 49.3034 124.864 49.3034H122.605C121.979 49.3034 122.258 48.5886 122.292 48.3969" fill="#31AFF2"/>
<path d="M81.5388 53.9054H142" stroke="#757575" stroke-width="0.408" stroke-miterlimit="4.04"/>
<path d="M20 53.9054H63.0476" stroke="#757575" stroke-width="0.408" stroke-miterlimit="4.04"/>
<path d="M78.1615 314.683C75.9451 313.761 73.8474 313.28 72.1851 313C78.5177 320.252 80.8132 329.708 77.3303 338.322C73.5703 347.658 63.9923 353.587 52.9895 354.629C52.8312 354.669 52.7124 354.669 52.5937 354.669H52.5541C52.1979 354.709 52 354.669 52 354.669C52 354.669 60.5886 359.157 71.1165 357.714C81.0903 356.352 90.1934 350.502 92.4098 340.646C95.4969 327.063 85.8397 317.728 78.1615 314.683Z" fill="#31AFF2"/>
</g>
<defs>
<linearGradient id="paint0_linear" x1="208.5" y1="42" x2="693.5" y2="395.5" gradientUnits="userSpaceOnUse">
<stop stop-color="#D7EAF4"/>
<stop offset="1" stop-color="#F2FAFF"/>
</linearGradient>
<linearGradient id="paint1_linear" x1="-11.1967" y1="337.208" x2="396.755" y2="248.555" gradientUnits="userSpaceOnUse">
<stop offset="0.385417" stop-color="#31AFF2"/>
<stop offset="1" stop-color="#5553F0"/>
</linearGradient>
<clipPath id="clip0">
<rect width="809" height="455" fill="white"/>
</clipPath>
</defs>
</svg>
